<?xml version="1.0" encoding="utf-8"?>
<!-- Generator: Adobe Illustrator 16.1.0, SVG Export Plug-In . SVG Version: 6.00 Build 0)  -->
<!DOCTYPE svg PUBLIC "-//W3C//DTD SVG 1.1//EN" "http://www.w3.org/Graphics/SVG/1.1/DTD/svg11.dtd">
<svg version="1.1" id="Your_Icon" xmlns="http://www.w3.org/2000/svg" xmlns:xlink="http://www.w3.org/1999/xlink" x="0px" y="0px"
	 width="100px" height="100px" viewBox="0 0 100 100" enable-background="new 0 0 100 100" xml:space="preserve">
<path d="M97.366,86.052L67.478,56.161c3.882-5.787,5.968-12.59,5.968-19.715c0-9.48-3.692-18.393-10.396-25.097
	C56.346,4.647,47.434,0.956,37.954,0.956c-9.48,0-18.393,3.691-25.097,10.394C6.154,18.054,2.463,26.966,2.463,36.446
	c0,9.48,3.691,18.392,10.396,25.096c6.704,6.704,15.615,10.396,25.096,10.396c7.205,0,14.079-2.135,19.909-6.1l29.859,29.857
	c1.008,1.009,2.862,0.79,4.14-0.487l5.017-5.018C98.156,88.912,98.375,87.059,97.366,86.052z M37.954,62.322
	c-14.27,0-25.877-11.607-25.877-25.876s11.609-25.877,25.877-25.877S63.83,22.178,63.83,36.446S52.223,62.322,37.954,62.322z"/>
<path fill="#FFFFFF" d="M97.366,85.096l-29.889-29.89c3.882-5.787,5.968-12.591,5.968-19.715c0-9.48-3.692-18.393-10.396-25.097
	C56.346,3.692,47.434,0,37.954,0c-9.48,0-18.393,3.692-25.097,10.395C6.154,17.098,2.463,26.011,2.463,35.491
	s3.691,18.391,10.396,25.096c6.704,6.704,15.615,10.396,25.096,10.396c7.205,0,14.079-2.135,19.909-6.101L87.723,94.74
	c1.008,1.009,2.862,0.789,4.14-0.488l5.017-5.018C98.156,87.957,98.375,86.104,97.366,85.096z M37.954,61.366
	c-14.27,0-25.877-11.606-25.877-25.875S23.686,9.614,37.954,9.614S63.83,21.223,63.83,35.491S52.223,61.366,37.954,61.366z"/>
</svg>
